<svg xmlns="http://www.w3.org/2000/svg" width="20" height="20" viewBox="0 0 456.008 560.035">
  <path fill="#FFFFFF" d="M380.844,297.529c0.787,84.752,74.349,112.955,75.164,113.314c-0.622,1.998-11.754,40.191-38.756,79.652
c-23.343,34.117-47.568,68.107-85.731,68.811c-37.499,0.691-49.557-22.236-92.429-22.236c-42.859,0-56.256,21.533-91.753,22.928
c-36.837,1.395-64.889-36.891-88.424-70.883C10.822,406.593-26.275,285.017,22.186,206.377
c24.001-39.154,67.021-63.975,113.772-64.693c35.5-0.689,69.061,23.928,90.727,23.928c21.6,0,62.259-29.566,105.016-25.203
c17.894,0.715,68.078,7.223,100.346,54.373C429.975,196.405,380.071,226.304,380.844,297.529 M310.369,89.418
C329.926,65.745,342.655,33.092,339.671,0c-27.155,1.074-60.045,18.059-79.532,40.887
c-17.472,20.244-32.788,52.557-28.672,83.469C263.229,127.616,290.846,113.055,310.369,89.418"/>
</svg> 