<svg xmlns="http://www.w3.org/2000/svg" width="20" height="20" viewBox="0 0 20 20">
  <path fill="#4285F4" d="M19.8,10.2c0-0.7-0.1-1.4-0.2-2.1H10v3.8h5.5c-0.2,1.3-1,2.4-2.1,3.1v2.6h3.3C18.3,15.8,19.8,13.3,19.8,10.2z"/>
  <path fill="#34A853" d="M10,20c2.8,0,5.2-0.9,6.9-2.5l-3.3-2.6c-0.9,0.6-2.1,1-3.6,1c-2.8,0-5.1-1.9-5.9-4.4H0.8v2.7C2.5,17.7,6,20,10,20z"/>
  <path fill="#FBBC05" d="M4.1,11.5c-0.2-0.7-0.4-1.4-0.4-2.1s0.1-1.5,0.4-2.1V4.6H0.8C0.3,6.2,0,8.1,0,10s0.3,3.8,0.8,5.4L4.1,11.5z"/>
  <path fill="#EA4335" d="M10,3.5c1.6,0,3,0.5,4.1,1.6l3-3C15.2,0.8,12.8,0,10,0C6,0,2.5,2.3,0.8,5.6l3.3,2.7C4.9,5.4,7.2,3.5,10,3.5z"/>
</svg> 