<svg xmlns="http://www.w3.org/2000/svg" width="20" height="20" viewBox="0 0 24 24">
  <path fill="#07C160" d="M8.667 11.511a1.276 1.276 0 01-1.285-1.285c0-.718.567-1.286 1.285-1.286.717 0 1.285.568 1.285 1.286 0 .717-.568 1.285-1.285 1.285zm6.666 0a1.276 1.276 0 01-1.285-1.285c0-.718.568-1.286 1.285-1.286.718 0 1.285.568 1.285 1.286 0 .717-.567 1.285-1.285 1.285z"/>
  <path fill="#07C160" d="M23.835 12.34c0-6.425-5.19-11.62-11.62-11.62C5.79.72.6 5.915.6 12.34c0 2.96 1.023 5.728 2.822 7.902a.829.829 0 01.184.516l-.342 3.199a.826.826 0 001.048.89l3.218-.862a.83.83 0 01.44-.04 11.52 11.52 0 003.84.648c6.43 0 11.623-5.195 11.623-11.62zm-1.77 0c0 5.435-4.418 9.85-9.853 9.85a9.863 9.863 0 01-3.233-.525.826.826 0 00-.585.04l-2.49 1.34.37-2.47a.83.83 0 00-.302-.81 9.818 9.818 0 01-2.73-7.385c0-5.435 4.42-9.85 9.855-9.85 5.434 0 9.853 4.415 9.853 9.85z"/>
</svg> 