<svg xmlns="http://www.w3.org/2000/svg" width="24" height="24" viewBox="0 0 24 24">
  <circle cx="12" cy="12" r="11" fill="#07C160"/>
  <path fill="white" d="M8.667 11.511a1.276 1.276 0 01-1.285-1.285c0-.718.567-1.286 1.285-1.286.717 0 1.285.568 1.285 1.286 0 .717-.568 1.285-1.285 1.285zm6.666 0a1.276 1.276 0 01-1.285-1.285c0-.718.568-1.286 1.285-1.286.718 0 1.285.568 1.285 1.286 0 .717-.567 1.285-1.285 1.285z"/>
  <path fill="white" d="M19.835 12.34c0-4.425-3.69-8.02-8.12-8.02S3.6 7.915 3.6 12.34c0 2.96 1.023 5.728 2.822 7.902a.829.829 0 01.184.516l-.342 3.199a.826.826 0 001.048.89l3.218-.862a.83.83 0 01.44-.04 8.52 8.52 0 003.84.648c4.43 0 8.123-3.195 8.123-8.02zm-1.77 0c0 3.435-2.918 6.85-6.353 6.85a6.863 6.863 0 01-2.233-.525.826.826 0 00-.585.04l-1.49 1.34.37-1.47a.83.83 0 00-.302-.81 6.818 6.818 0 01-1.73-4.385c0-3.435 2.92-6.85 6.355-6.85 3.434 0 6.353 2.415 6.353 6.85z"/>
</svg> 